# xmcd
#
# Track frame offsets: 
#        150
#        45567
#        78595
#        120915
#        138177
#        174675
#        217585
#        259495
#        267367
#
# Disc length: 4021 seconds
#
# Revision: 1
# Processed by: cddbd v1.5.2PL0 Copyright (c) Steve Scherf et al.
# Submitted via: ExactAudioCopy v0.99pb5
#
DISCID=770fb309
DTITLE=Christine Jensen - collage
DYEAR=2000
DGENRE=Jazz
TTITLE0=Camel Trot
TTITLE1=A La Jay
TTITLE2=Summer Night
TTITLE3=Sylvan Vale
TTITLE4=Sweet Adelphi
TTITLE5=Afternoon Off
TTITLE6=Half Tide
TTITLE7=Duet
TTITLE8=Marsh Blues
EXTD=
EXTT0=
EXTT1=
EXTT2=
EXTT3=
EXTT4=
EXTT5=
EXTT6=
EXTT7=
EXTT8=
PLAYORDER=
